<?xml version="1.0" standalone="no"?><!DOCTYPE svg PUBLIC "-//W3C//DTD SVG 1.1//EN" "http://www.w3.org/Graphics/SVG/1.1/DTD/svg11.dtd"><svg t="1715706081508" class="icon" viewBox="0 0 1024 1024" version="1.1" xmlns="http://www.w3.org/2000/svg" p-id="7444" xmlns:xlink="http://www.w3.org/1999/xlink" width="200" height="200"><path d="M744.74 296.515c2.985 1.694 5.975 3.512 8.893 5.53l8.904 6.036 0.159 10.654c0.496 30.925-3.205 57.099-11.33 77.236-7.476 18.447-18.515 32.225-33.327 40.535-10.071 35.988-21.888 69.309-38.65 97.305-19.293 32.225-44.755 57.032-80.748 70.349-16.108 5.908-57.227 8.643-96.789 8.049-38.19-0.579-76.518-4.352-91.72-11.362-32.742-15.073-55.736-40.412-73.144-71.977-14.935-26.962-25.595-58.332-34.882-91.463-15.33-7.987-26.824-21.699-34.56-40.274-8.474-20.265-12.34-46.905-11.822-78.408l0.128-10.716 8.898-5.975a99.02 99.02 0 0 1 6.825-4.286c-9.994-123.873-6.226-169.666 39.767-222.023C401.05 2.253 606.71 4.854 697.58 71.439c61.91 58.466 66.201 123.945 47.16 225.076zM556.36 654.766l1.305 28.385-16.798 27.735L564.29 864.84 660.362 658.4l146.253-5.002c75.515 71.455 123.97 239.765 112.056 349.542H103.537c2.012-96.399 19.747-261.063 115.753-344.796l132.126 1.234 123.746 204.16 23.255-152.653-16.825-27.735 1.3-28.385c32.026-1.761 41.447-1.761 73.468 0zM665.784 252.55c-58.112 11.361-144.63 21.304-213.033-17.152-26.301-14.812-64.824 15.524-96.332 12.406a237.02 237.02 0 0 0-21.305 62.945l-3.507 18.576-18.708-1.818c-3.446-0.323-7.081 0.123-10.85 1.367-1.69 0.517-3.379 1.229-5.063 2.012 0.486 20.588 3.379 37.673 8.709 50.473 4.674 11.238 11.238 18.575 19.742 21.238l10.911 3.384 2.985 10.977c9.165 33.972 19.425 66.002 33.854 92.053 13.383 24.218 30.525 43.448 54.24 54.364 9.934 4.552 41.698 7.148 74.891 7.665 35.277 0.517 70.487-1.367 82.104-5.653 26.123-9.682 44.954-28.324 59.572-52.746 15.718-26.317 26.895-59.638 36.7-96.21l2.795-10.455 10.394-3.635c8.212-2.929 14.612-10.399 19.159-21.765 5.13-12.667 7.92-29.491 8.412-49.695a35.42 35.42 0 0 0-4.577-1.818c-3.635-1.234-7.214-1.817-10.588-1.618l-18.187 1.168-3.384-17.925a234.02 234.02 0 0 0-18.934-58.138z" fill="#56adef" p-id="7445"></path></svg>