<?xml version="1.0" standalone="no"?><!DOCTYPE svg PUBLIC "-//W3C//DTD SVG 1.1//EN" "http://www.w3.org/Graphics/SVG/1.1/DTD/svg11.dtd"><svg t="1715706435622" class="icon" viewBox="0 0 1170 1024" version="1.1" xmlns="http://www.w3.org/2000/svg" p-id="16459" xmlns:xlink="http://www.w3.org/1999/xlink" width="228.515625" height="200"><path d="M425.50784 661.065143c0-360.813714 371.785143-408.283429 412.452571-413.476572L594.028983 14.701714a61.44 61.44 0 0 0-78.262857 0L21.686126 425.764571a58.660571 58.660571 0 0 0-7.168 83.894858 61.44 61.44 0 0 0 85.504 6.948571l7.899428-6.582857v473.307428c0 9.874286 4.022857 19.382857 11.117715 26.331429 7.094857 7.021714 16.822857 10.971429 26.843428 10.971429h493.494857c-26.331429-14.628571-213.869714-86.016-213.869714-359.570286z m-141.385143-510.537143a45.202286 45.202286 0 0 0-45.568-44.836571H151.953554a45.202286 45.202286 0 0 0-45.494857 44.836571v157.988571l177.737143-145.700571v-12.288z m625.883429 377.856a57.782857 57.782857 0 0 0-40.813715 16.603429 56.027429 56.027429 0 0 0-0.146285 80.018285 59.538286 59.538286 0 0 0 81.554285 0.146286 56.32 56.32 0 0 0 0-80.164571 57.417143 57.417143 0 0 0-40.594285-16.603429z" fill="#fc98c6" p-id="16460"></path><path d="M830.572983 331.410286c-186.953143 0.146286-338.578286 148.918857-338.944 332.653714 0.438857 183.661714 151.990857 332.361143 338.944 332.507429 186.806857-0.219429 338.139429-148.992 338.358857-332.507429-0.146286-183.588571-151.552-332.361143-338.358857-332.653714z m161.792 333.677714a116.077714 116.077714 0 0 1-139.702857 17.115429l-73.728 72.411428 33.645714 33.133714a28.086857 28.086857 0 0 1 0 40.155429 29.549714 29.549714 0 0 1-40.740571 0l-33.572572-32.914286-54.052571 52.882286a29.037714 29.037714 0 0 1-40.740572 0 28.013714 28.013714 0 0 1 0-40.155429L812.06784 642.194286a109.568 109.568 0 0 1-16.310857-57.124572 111.542857 111.542857 0 0 1 33.792-80.091428c21.577143-21.211429 50.907429-33.133714 81.481143-33.060572 30.72 0 59.538286 11.776 81.334857 33.133715a111.835429 111.835429 0 0 1 0 160.036571z" fill="#fc98c6" p-id="16461"></path></svg>