<?xml version="1.0" standalone="no"?><!DOCTYPE svg PUBLIC "-//W3C//DTD SVG 1.1//EN" "http://www.w3.org/Graphics/SVG/1.1/DTD/svg11.dtd"><svg t="1716304862218" class="icon" viewBox="0 0 1024 1024" version="1.1" xmlns="http://www.w3.org/2000/svg" p-id="3685" xmlns:xlink="http://www.w3.org/1999/xlink" width="200" height="200"><path d="M512 242.526316c134.790737 0 323.368421 96.256 323.368421 296.421052v377.263158h107.789474c23.066947 0 53.894737 26.947368 53.894737 53.894737s-30.827789 53.894737-53.894737 53.894737H80.842105c-23.066947 0-53.894737-26.947368-53.894737-53.894737s30.827789-53.894737 53.894737-53.894737h112.262737v-377.263158C193.104842 338.782316 377.263158 242.526316 512 242.526316z m30.342737 161.68421L390.736842 681.391158H512L481.657263 889.263158l151.605895-277.180632H512L542.342737 404.210526zM94.315789 260.850526s0.107789 0 0.10779 0.161685l99.974737 57.936842-31.474527 54.757052L62.895158 315.661474a31.582316 31.582316 0 0 1 31.366737-54.757053z m891.580632 11.479579l0.053895 0.215579a31.744 31.744 0 0 1-11.533474 43.169684l-99.974737 57.882948-31.474526-54.703158 99.974737-57.990737a31.474526 31.474526 0 0 1 42.954105 11.425684z m-197.578105-198.063158h0.161684c15.090526 8.784842 20.210526 28.133053 11.533474 43.223579l-57.667369 100.298106-54.595368-31.528421 57.667368-100.352a31.420632 31.420632 0 0 1 42.900211-11.641264z m-496.478316 11.479579l0.053895 0.053895 57.721263 100.352-54.541474 31.528421-57.721263-100.24421a31.474526 31.474526 0 1 1 54.433684-31.636211zM518.467368 0c18.863158 0 34.169263 14.228211 34.169264 31.851789V145.515789H484.405895V31.797895c0-17.569684 15.252211-31.797895 34.115368-31.797895z" fill="#FF5167" p-id="3686"></path></svg>