<?xml version="1.0" standalone="no"?><!DOCTYPE svg PUBLIC "-//W3C//DTD SVG 1.1//EN" "http://www.w3.org/Graphics/SVG/1.1/DTD/svg11.dtd"><svg t="1715706732890" class="icon" viewBox="0 0 1024 1024" version="1.1" xmlns="http://www.w3.org/2000/svg" p-id="23683" xmlns:xlink="http://www.w3.org/1999/xlink" width="200" height="200"><path d="M430.08 454.5536a194.56 194.56 0 1 0-194.56-194.2016 194.56 194.56 0 0 0 194.56 194.2016zM565.3504 907.7248L485.12 761.856a11.5712 11.5712 0 0 1 0-10.9568l72.0384-130.8672a35.84 35.84 0 0 0-0.4608-33.7408 36.7104 36.7104 0 0 0-29.6448-16.8448H379.8016c-108.0832 0-162.304 0-208.8448 23.7056a220.4672 220.4672 0 0 0-94.8224 95.2832c-23.7056 46.4896-23.7056 100.7616-23.7056 208.384v27.3408a34.1504 34.1504 0 0 0 34.2016 34.2016h449.0752a32.8192 32.8192 0 0 0 27.3408-14.1312 34.4576 34.4576 0 0 0 5.12-30.72c-0.9728-1.6896-1.8944-3.9424-2.816-5.7856zM785.1008 708.5056a47.6672 47.6672 0 1 0 0 95.2832 47.6672 47.6672 0 0 0 0-95.2832z" fill="#f1e532" p-id="23684"></path><path d="M960.6144 716.2368l-52.8896-91.1872a80.2304 80.2304 0 0 0-69.2736-39.6288h-107.1616a79.9744 79.9744 0 0 0-68.8128 39.6288L609.28 716.2368a81.3056 81.3056 0 0 0 0 80.2816l53.3504 91.1872a79.9744 79.9744 0 0 0 68.8128 39.6288h107.1616a80.2304 80.2304 0 0 0 69.2736-39.6288l52.8896-91.1872a79.104 79.104 0 0 0-0.1536-80.2816z m-58.7776 46.08l-53.3504 91.1872a12.6464 12.6464 0 0 1-10.24 5.4784h-106.9568a11.2128 11.2128 0 0 1-9.3696-5.4784l-53.3504-91.1872a11.264 11.264 0 0 1 0-11.8784L721.92 659.2512a11.2128 11.2128 0 0 1 9.5744-5.4784h107.1616a12.6464 12.6464 0 0 1 10.24 5.4784l53.3504 91.1872a13.7728 13.7728 0 0 1-0.4096 11.8784z" fill="#f1e532" p-id="23685"></path></svg>