<?xml version="1.0" standalone="no"?><!DOCTYPE svg PUBLIC "-//W3C//DTD SVG 1.1//EN" "http://www.w3.org/Graphics/SVG/1.1/DTD/svg11.dtd"><svg t="1715706302258" class="icon" viewBox="0 0 1024 1024" version="1.1" xmlns="http://www.w3.org/2000/svg" p-id="11618" xmlns:xlink="http://www.w3.org/1999/xlink" width="200" height="200"><path d="M137.152 73.152h384a64 64 0 0 1 64 64v813.696h-512V137.152a64 64 0 0 1 64-64z m77.696 146.304a32 32 0 0 0-32 32v9.088a32 32 0 0 0 32 32H443.52a32 32 0 0 0 32-32V251.52a32 32 0 0 0-32-32H214.848z m0 219.392a32 32 0 0 0-32 32V480a32 32 0 0 0 32 32H443.52a32 32 0 0 0 32-32v-9.152a32 32 0 0 0-32-32H214.848z m0 219.456a32 32 0 0 0-32 32v9.152a32 32 0 0 0 32 32H443.52a32 32 0 0 0 32-32v-9.152a32 32 0 0 0-32-32H214.848zM750.912 265.728l164.544 82.304a64 64 0 0 1 35.392 57.216v545.6h-292.544v-627.84a64 64 0 0 1 92.608-57.28z" fill="#1ed4c6" p-id="11619"></path><path d="M0 877.696m36.544 0l950.912 0q36.544 0 36.544 36.544l0 0.064q0 36.544-36.544 36.544l-950.912 0q-36.544 0-36.544-36.544l0-0.064q0-36.544 36.544-36.544Z" fill="#1ed4c6" p-id="11620"></path></svg>