<?xml version="1.0" standalone="no"?><!DOCTYPE svg PUBLIC "-//W3C//DTD SVG 1.1//EN" "http://www.w3.org/Graphics/SVG/1.1/DTD/svg11.dtd"><svg t="1715706231406" class="icon" viewBox="0 0 1024 1024" version="1.1" xmlns="http://www.w3.org/2000/svg" p-id="9636" xmlns:xlink="http://www.w3.org/1999/xlink" width="200" height="200"><path d="M895.99664 474.62222a319.9988 319.9988 0 0 0-327.678771 543.485962 51.967805 51.967805 0 0 1-53.759799-7.167973L441.598344 952.828427l-65.343755 58.111782a50.431811 50.431811 0 0 1-33.663874 12.415953 50.111812 50.111812 0 0 1-33.343875-12.287954l-65.215755-58.111782-65.983753 58.623781a50.815809 50.815809 0 0 1-33.599874 12.415953 49.919813 49.919813 0 0 1-33.407874-12.287954L34.495871 943.612461a36.607863 36.607863 0 0 1-6.271977-7.039973A67.327748 67.327748 0 0 1 0 882.74869V51.391807C0 23.039914 23.039914 0 50.75181 0h794.49302c28.031895 0 50.75181 22.847914 50.75181 51.391807V474.62222zM102.399616 429.502389c0 13.503949 11.199958 25.215905 24.959906 25.215906h231.679132c14.271946 0 24.959906-11.263958 24.959906-25.215906a25.407905 25.407905 0 0 0-24.959906-25.279905H127.359522a24.831907 24.831907 0 0 0-24.959906 25.279905z m0 202.047243c0 13.567949 11.007959 25.279905 24.639908 25.279905h181.11932a24.959906 24.959906 0 0 0 24.639908-25.279905 25.215905 25.215905 0 0 0-24.639908-25.215906h-181.11932a24.959906 24.959906 0 0 0-24.639908 25.215906z m0-429.43839c0 13.567949 11.263958 25.279905 25.215905 25.279905h333.56675c14.079947 0 25.215905-11.327958 25.215905-25.279905a25.471904 25.471904 0 0 0-25.215905-25.279905H127.615521a25.087906 25.087906 0 0 0-25.215905 25.279905zM767.99712 1023.99616a255.99904 255.99904 0 1 1 0-511.99808 255.99904 255.99904 0 0 1 0 511.99808z m-11.007959-161.791393v60.799772h21.823918v-60.799772h68.223745v16.767937h21.18392v-144.191459H778.877079v-29.887888h-21.759918v29.887888h-88.575668v145.087455h21.24792v-17.663933h67.263748z m-67.263747-54.143797h67.263747v34.431871h-67.263747v-34.431871z m89.087665 34.431871v-34.431871h68.223745v34.431871h-68.223745z m68.223745-53.567799h-68.223745v-34.367872h68.223745v34.367872z m-90.047663-34.367872v34.367872h-67.263747v-34.367872h67.263747z m135.807491-84.095684h-114.879569c-3.007989-9.599964-5.759978-17.919933-8.767967-25.407905l-23.039914 3.839986c3.327988 6.655975 6.399976 13.823948 9.407965 21.567919H639.9976v53.887798h21.24792v-34.431871h210.367211v32.895876h21.183921v-52.351803z" fill="#9480f8" p-id="9637"></path></svg>